<svg width="24" height="24" viewBox="0 0 24 24" fill="none" xmlns="http://www.w3.org/2000/svg">
<path d="M19 6.5C19 7.32843 18.3284 8 17.5 8C16.6716 8 16 7.32843 16 6.5C16 5.67157 16.6716 5 17.5 5C18.3284 5 19 5.67157 19 6.5Z" fill="#E5E5E5"/>
<path fill-rule="evenodd" clip-rule="evenodd" d="M12 17C14.7614 17 17 14.7614 17 12C17 9.23858 14.7614 7 12 7C9.23858 7 7 9.23858 7 12C7 14.7614 9.23858 17 12 17ZM12 15C13.6569 15 15 13.6569 15 12C15 10.3431 13.6569 9 12 9C10.3431 9 9 10.3431 9 12C9 13.6569 10.3431 15 12 15Z" fill="#E5E5E5"/>
<path fill-rule="evenodd" clip-rule="evenodd" d="M2 11.6C2 8.23969 2 6.55953 2.65396 5.27606C3.2292 4.14708 4.14708 3.2292 5.27606 2.65396C6.55953 2 8.23969 2 11.6 2H12.4C15.7603 2 17.4405 2 18.7239 2.65396C19.8529 3.2292 20.7708 4.14708 21.346 5.27606C22 6.55953 22 8.23969 22 11.6V12.4C22 15.7603 22 17.4405 21.346 18.7239C20.7708 19.8529 19.8529 20.7708 18.7239 21.346C17.4405 22 15.7603 22 12.4 22H11.6C8.23969 22 6.55953 22 5.27606 21.346C4.14708 20.7708 3.2292 19.8529 2.65396 18.7239C2 17.4405 2 15.7603 2 12.4V11.6ZM11.6 4H12.4C14.1132 4 15.2777 4.00156 16.1779 4.0751C17.0548 4.14674 17.5032 4.27659 17.816 4.43597C18.5686 4.81947 19.1805 5.43139 19.564 6.18404C19.7234 6.49684 19.8533 6.94524 19.9249 7.82208C19.9984 8.72225 20 9.88684 20 11.6V12.4C20 14.1132 19.9984 15.2777 19.9249 16.1779C19.8533 17.0548 19.7234 17.5032 19.564 17.816C19.1805 18.5686 18.5686 19.1805 17.816 19.564C17.5032 19.7234 17.0548 19.8533 16.1779 19.9249C15.2777 19.9984 14.1132 20 12.4 20H11.6C9.88684 20 8.72225 19.9984 7.82208 19.9249C6.94524 19.8533 6.49684 19.7234 6.18404 19.564C5.43139 19.1805 4.81947 18.5686 4.43597 17.816C4.27659 17.5032 4.14674 17.0548 4.0751 16.1779C4.00156 15.2777 4 14.1132 4 12.4V11.6C4 9.88684 4.00156 8.72225 4.0751 7.82208C4.14674 6.94524 4.27659 6.49684 4.43597 6.18404C4.81947 5.43139 5.43139 4.81947 6.18404 4.43597C6.49684 4.27659 6.94524 4.14674 7.82208 4.0751C8.72225 4.00156 9.88684 4 11.6 4Z" fill="#E5E5E5"/>
</svg>
